<!--?xml version="1.0" standalone="no"?-->
              <svg id="sw-js-blob-svg" viewBox="0 0 100 100" xmlns="http://www.w3.org/2000/svg" version="1.1">
                    <defs> 
                        <linearGradient id="sw-gradient" x1="0" x2="1" y1="1" y2="0">
                            <stop id="stop1" stop-color="#D0E3D5" offset="0%"></stop>
                            <stop id="stop2" stop-color="#D0E3D5" offset="100%"></stop>
                        </linearGradient>
                    </defs>
                <path fill="url(#sw-gradient)" d="M20.3,-29.6C26.2,-23.7,30.7,-17.6,35,-10C39.3,-2.5,43.4,6.5,41.3,13.6C39.2,20.7,31,26.1,23.1,30.4C15.2,34.7,7.6,38,-0.5,38.6C-8.6,39.3,-17.1,37.3,-22.9,32.3C-28.6,27.3,-31.6,19.3,-34.4,11.1C-37.2,2.9,-39.9,-5.5,-38,-12.7C-36.1,-19.9,-29.6,-25.9,-22.5,-31.4C-15.4,-36.8,-7.7,-41.8,-0.2,-41.5C7.2,-41.1,14.5,-35.5,20.3,-29.6Z" width="100%" height="100%" transform="translate(50 50)" stroke-width="0" style="transition: all 0.3s ease 0s;" stroke="url(#sw-gradient)"></path>
              </svg>